<svg class="svg-icon" style="width: 1em;height: 1em;vertical-align: middle;fill: currentColor;overflow: hidden;" viewBox="0 0 1024 1024" version="1.1" xmlns="http://www.w3.org/2000/svg"><path d="M810.602763 227.438357H630.362726l-48.640025-89.151717a156.473911 156.473911 0 0 0-137.342834-81.52828h-231.152595c-86.252312 0-156.458914 70.205602-156.458914 156.456914v597.377491c0 86.3073 70.205602 156.456914 156.458914 156.456914h597.377491c86.3073 0 156.457914-70.149614 156.457914-156.456914V383.897271c-0.002-86.250312-70.152613-156.458914-156.459914-156.458914z m-597.377491-85.340498h231.152596a71.022435 71.022435 0 0 1 62.4122 37.092393l26.341598 48.245106H142.106857V213.217274a71.215395 71.215395 0 0 1 71.118415-71.116416z m668.495906 668.500905a71.14341 71.14341 0 0 1-71.118415 71.116416h-597.377491a71.178403 71.178403 0 0 1-71.118415-71.116416v-497.817909h668.495906a71.185401 71.185401 0 0 1 71.118415 71.116416z"  /></svg>